<?xml version="1.0" standalone="no"?>
<!DOCTYPE svg PUBLIC "-//W3C//DTD SVG 20010904//EN"
 "http://www.w3.org/TR/2001/REC-SVG-20010904/DTD/svg10.dtd">
<svg version="1.0" xmlns="http://www.w3.org/2000/svg"
 width="1374.000000pt" height="339.000000pt" viewBox="0 0 1374.000000 339.000000"
 preserveAspectRatio="xMidYMid meet">

<g transform="translate(0.000000,339.000000) scale(0.100000,-0.100000)"
fill="#000000" stroke="none">
<path d="M0 1690 l0 -1690 1690 0 1690 0 0 1690 0 1690 -1690 0 -1690 0 0
-1690z m2140 1075 l0 -455 -985 0 -985 0 0 455 0 455 985 0 985 0 0 -455z
m1078 -537 l2 -988 -455 0 -455 0 0 990 0 990 453 -2 452 -3 3 -987z m-2148
-1068 l0 -990 -450 0 -450 0 0 990 0 990 450 0 450 0 0 -990z m1070 535 l0
-455 -450 0 -450 0 0 455 0 455 450 0 450 0 0 -455z m1080 -1075 l0 -450 -990
0 -990 0 0 450 0 450 990 0 990 0 0 -450z"/>
<path d="M8116 2920 c-490 -62 -868 -359 -1017 -799 -80 -236 -89 -521 -24
-777 108 -425 431 -737 882 -851 101 -26 122 -28 323 -28 233 0 292 7 445 57
428 137 730 485 811 936 21 118 21 360 0 479 -44 250 -153 461 -326 633 -170
171 -375 278 -633 331 -115 23 -350 33 -461 19z m379 -451 c275 -66 481 -271
556 -555 29 -108 31 -306 6 -416 -68 -290 -264 -500 -543 -580 -104 -30 -332
-32 -434 -4 -220 60 -395 206 -490 411 -51 108 -70 190 -77 320 -9 188 31 354
120 498 53 85 166 196 250 246 167 99 405 130 612 80z"/>
<path d="M12325 2923 c-545 -50 -968 -412 -1086 -933 -26 -114 -36 -347 -20
-473 69 -546 455 -948 1000 -1041 58 -10 152 -16 245 -16 238 0 403 34 583
120 367 174 602 490 669 895 22 135 14 401 -15 528 -101 438 -430 769 -876
882 -150 38 -340 53 -500 38z m257 -438 c243 -20 468 -177 583 -405 61 -122
77 -190 82 -355 6 -184 -13 -280 -84 -425 -39 -80 -61 -109 -137 -186 -77 -76
-106 -97 -186 -137 -141 -68 -199 -81 -370 -81 -121 -1 -158 3 -224 22 -130
37 -230 95 -322 187 -95 94 -150 183 -196 315 -32 93 -33 99 -33 265 0 197 10
247 80 390 91 187 249 322 450 385 67 21 213 39 265 34 14 -2 55 -6 92 -9z"/>
<path d="M4610 1690 l0 -1200 503 0 c531 0 611 5 776 50 324 89 588 316 722
620 128 289 143 676 39 984 -135 399 -478 672 -925 736 -39 5 -301 10 -592 10
l-523 0 0 -1200z m910 800 c224 -19 372 -82 506 -215 66 -65 90 -98 128 -175
68 -137 89 -251 83 -435 -6 -166 -27 -260 -89 -385 -59 -120 -178 -239 -298
-298 -152 -75 -207 -85 -512 -90 l-268 -4 0 806 0 806 168 0 c92 0 219 -5 282
-10z"/>
<path d="M10337 2053 c-3 -770 -4 -843 -21 -898 -36 -121 -101 -206 -191 -253
-42 -22 -67 -27 -152 -30 -88 -4 -114 -1 -194 22 -50 15 -93 25 -95 24 -9 -9
-72 -384 -66 -390 5 -5 53 -20 108 -35 90 -24 116 -27 289 -27 153 -1 203 2
255 17 198 54 363 197 447 385 14 31 37 100 51 152 l27 95 3 888 3 887 -230 0
-230 0 -4 -837z"/>
</g>
</svg>
